<?xml version="1.0" standalone="no"?><svg xmlns="http://www.w3.org/2000/svg" viewBox="0 0 1440 320"><path fill="#f7cf07" fill-opacity="1" d="M0,160L34.3,176C68.6,192,137,224,206,213.3C274.3,203,343,149,411,133.3C480,117,549,139,617,170.7C685.7,203,754,245,823,240C891.4,235,960,181,1029,149.3C1097.1,117,1166,107,1234,122.7C1302.9,139,1371,181,1406,202.7L1440,224L1440,0L1405.7,0C1371.4,0,1303,0,1234,0C1165.7,0,1097,0,1029,0C960,0,891,0,823,0C754.3,0,686,0,617,0C548.6,0,480,0,411,0C342.9,0,274,0,206,0C137.1,0,69,0,34,0L0,0Z"></path></svg>